<mxfile host="app.diagrams.net" modified="2024-07-18T02:26:09.383Z" agent="Mozilla/5.0 (Macintosh; Intel Mac OS X 10_15_7) AppleWebKit/537.36 (KHTML, like Gecko) Chrome/126.0.0.0 Safari/537.36" etag="sPT3TcvWzsv5XU7J6W0P" version="24.7.1" type="device">
  <diagram name="Page-1" id="4YpMP-43oDF2RfzTdJxP">
    <mxGraphModel dx="1778" dy="1024" grid="1" gridSize="10" guides="1" tooltips="1" connect="1" arrows="1" fold="1" page="1" pageScale="1" pageWidth="850" pageHeight="1100" math="0" shadow="0">
      <root>
        <mxCell id="0" />
        <mxCell id="1" parent="0" />
      </root>
    </mxGraphModel>
  </diagram>
</mxfile>
